<?xml version="1.0" encoding="utf-8"?>
<!-- Generator: Adobe Illustrator 28.0.0, SVG Export Plug-In . SVG Version: 6.00 Build 0)  -->
<svg version="1.1" id="Layer_1" xmlns="http://www.w3.org/2000/svg" xmlns:xlink="http://www.w3.org/1999/xlink" x="0px" y="0px"
	 viewBox="0 0 217.81 79.03" style="enable-background:new 0 0 217.81 79.03;" xml:space="preserve">
<style type="text/css">
	.st0{fill:#2D4351;}
	.st1{font-family:'Square721BT-Bold';}
	.st2{font-size:12.652px;}
	.st3{fill:#30647F;}
	.st4{font-family:'ExpoArabic-SemiBold';}
	.st5{font-size:7.4665px;}
</style>
<g>
	<g>
		<g>
			<text transform="matrix(1 0 0 1 69.2713 42.8514)" class="st0 st1 st2">Al-Momayz Printing</text>
		</g>
		<g>
			<text transform="matrix(1 0 0 1 69.2713 42.8514)" class="st0 st1 st2">Al-Momayz Printing</text>
		</g>
	</g>
	<g>
		<text transform="matrix(1 0 0 1 68.8113 54.5897)" class="st3 st4 st5">Made in Saudi Arabia</text>
	</g>
	<g>
		<path class="st0" d="M34.46,36.02c9.64-5.4,6.34-3.56,17.74-9.95l11.46,17.22c0.08-0.72,0.12-1.44,0.12-2.18
			c0-11.29-9.16-20.45-20.45-20.45c-11.29,0-20.45,9.16-20.45,20.45c0,9.24,6.13,17.04,14.54,19.58l-2.96-4.54
			C34.46,53.83,34.46,38.13,34.46,36.02z"/>
		<path class="st3" d="M52.2,26.07c0,2.17,0,17.44,0,19.68l-5.21,3.05c0-3.11,0-11.92,0-15.06l-1.49,0.84c0,3.16,0,11.98,0,15.1
			l-4.64,2.72c0-3.14,0-12.05,0-15.22l-1.49,0.84c0,3.2,0,12.11,0,15.26l-4.91,2.88l2.96,4.54c1.87,0.56,3.86,0.87,5.92,0.87
			c10.56,0,19.25-8,20.33-18.27L52.2,26.07z"/>
	</g>
</g>
</svg>
